HIERARCHY
ROOT Hips
{
    OFFSET 0.000000 0.000000 0.000000
    CHANNELS 6 Xposition Yposition Zposition Zrotation Xrotation Yrotation
    JOINT Spine
    {
        OFFSET -0.000000 7.246840 0.000000
        CHANNELS 3 Zrotation Xrotation Yrotation
        JOINT Spine1
        {
            OFFSET -0.000000 20.289354 0.000000
            CHANNELS 3 Zrotation Xrotation Yrotation
            JOINT Neck
            {
                OFFSET -0.000000 20.206032 1.836912
                CHANNELS 3 Zrotation Xrotation Yrotation
                JOINT Head
                {
                    OFFSET -0.000000 12.372654 -1.767522
                    CHANNELS 3 Zrotation Xrotation Yrotation
                    End Site
                    {
                        OFFSET -0.000000 22.094025 0.000000
                    }
                }
            }
            JOINT LeftShoulder
            {
                OFFSET 3.465871 17.201674 -0.568930
                CHANNELS 3 Zrotation Xrotation Yrotation
                JOINT LeftArm
                {
                    OFFSET 14.070313 0.000000 0.000000
                    CHANNELS 3 Zrotation Xrotation Yrotation
                    JOINT LeftForeArm
                    {
                        OFFSET 26.549477 0.000000 0.000000
                        CHANNELS 3 Zrotation Xrotation Yrotation
                        JOINT LeftHand
                        {
                            OFFSET 18.880413 0.000000 0.000000
                            CHANNELS 3 Zrotation Xrotation Yrotation
                            End Site
                            {
                                OFFSET 13.256415 0.000000 0.000000
                            }
                        }
                    }
                }
            }
            JOINT RightShoulder
            {
                OFFSET -3.526370 17.201674 -0.568930
                CHANNELS 3 Zrotation Xrotation Yrotation
                JOINT RightArm
                {
                    OFFSET -14.070313 0.000000 0.000000
                    CHANNELS 3 Zrotation Xrotation Yrotation
                    JOINT RightForeArm
                    {
                        OFFSET -26.549477 0.000000 0.000000
                        CHANNELS 3 Zrotation Xrotation Yrotation
                        JOINT RightHand
                        {
                            OFFSET -18.880413 0.000000 0.000000
                            CHANNELS 3 Zrotation Xrotation Yrotation
                            End Site
                            {
                                OFFSET -13.256415 0.000000 0.000000
                            }
                        }
                    }
                }
            }
        }
    }
    JOINT LeftUpLeg
    {
        OFFSET 8.837609 0.000000 0.000000
        CHANNELS 3 Zrotation Xrotation Yrotation
        JOINT LeftLeg
        {
            OFFSET -0.000000 -41.345005 0.000000
            CHANNELS 3 Zrotation Xrotation Yrotation
            JOINT LeftFoot
            {
                OFFSET -0.000000 -35.500874 0.000000
                CHANNELS 3 Zrotation Xrotation Yrotation
                JOINT LeftToeBase
                {
                    OFFSET -0.000000 -5.744446 13.256415
                    CHANNELS 3 Zrotation Xrotation Yrotation
                    End Site
                    {
                        OFFSET -0.000000 0.000000 3.535044
                    }
                }
            }
        }
    }
    JOINT RightUpLeg
    {
        OFFSET -8.837609 0.000000 0.000000
        CHANNELS 3 Zrotation Xrotation Yrotation
        JOINT RightLeg
        {
            OFFSET -0.000000 -41.345005 0.000000
            CHANNELS 3 Zrotation Xrotation Yrotation
            JOINT RightFoot
            {
                OFFSET -0.000000 -35.500874 0.000000
                CHANNELS 3 Zrotation Xrotation Yrotation
                JOINT RightToeBase
                {
                    OFFSET -0.000000 -5.744446 13.256415
                    CHANNELS 3 Zrotation Xrotation Yrotation
                    End Site
                    {
                        OFFSET -0.000000 0.000000 3.535044
                    }
                }
            }
        }
    }
}
MOTION
Frames:    10
Frame Time:    0.010000
2.202675    82.518349    -11.491680    2.170451    3.998181    0.473612    -3.093638    -15.203239    -0.001319    -2.611331    3.447281    0.490289    2.945894    32.702126    -2.544058    4.651845    -11.894317    -1.032350    20.110432    0.409045    6.137838    -28.999838    7.716728    -14.998447    4.979833    -5.367873    -2.421429    -25.743853    -3.736734    -6.692025    -16.875937    -1.552933    12.255335    13.300688    5.460214    15.594563    1.993192    -1.199826    -7.734982    -2.856893    -1.525167    18.297523    -1.953732    7.633348    -0.726456    -2.092647    -10.061608    -6.144835    4.503019    0.735611    -0.841114    -0.429074    -1.492352    0.606135    -7.538757    5.405172    2.135956    8.500465    -10.935013    3.246686    -1.321942    1.183922    -5.745923    -0.242362    -0.173672    0.435448    
2.216161    82.518402    -11.495513    2.159345    3.996373    0.466059    -3.087884    -15.206042    -0.005529    -2.641397    3.450864    0.486369    2.962066    32.685406    -2.551716    4.665305    -11.911233    -1.034245    20.142086    0.436408    6.155098    -28.986399    7.739102    -15.027874    5.000941    -5.387427    -2.424542    -25.755556    -3.750962    -6.709748    -16.846649    -1.559441    12.246019    13.253480    5.506885    15.631415    1.911546    -1.466826    -7.822944    -2.851903    -1.806589    18.736872    -1.953429    7.636594    -0.725173    -2.115933    -10.062518    -6.029752    4.567613    0.718506    -0.961017    -0.426070    -1.484177    0.601861    -7.534663    5.403636    2.133951    8.498022    -10.940471    3.233287    -1.286781    1.184502    -5.727604    -0.239387    -0.165009    0.430062    
2.227834    82.517792    -11.498965    2.146169    3.994412    0.465832    -3.090578    -15.210370    -0.011944    -2.642032    3.456095    0.480587    2.944472    32.683987    -2.554018    4.688738    -11.954992    -1.032141    20.087187    0.338214    6.217447    -28.844862    7.911129    -15.061953    4.968806    -5.425790    -2.431389    -25.738373    -3.785064    -6.735091    -16.857021    -1.583073    12.250010    13.231735    5.621453    15.619709    1.921442    -1.506985    -7.792905    -2.873266    -1.849597    18.715460    -1.944348    7.635869    -0.725609    -2.143064    -10.053577    -5.964736    4.576487    0.706687    -1.024004    -0.426205    -1.488896    0.602069    -7.528030    5.403687    2.115463    8.488794    -10.936681    3.238305    -1.272426    1.187092    -5.720688    -0.234480    -0.160154    0.421226    
2.241569    82.517067    -11.502793    2.139257    3.985714    0.461748    -3.092038    -15.207584    -0.018336    -2.651345    3.459019    0.474635    2.923662    32.683651    -2.556304    4.716556    -11.983321    -1.029998    20.108000    0.284725    6.197218    -28.849226    7.960428    -14.985471    4.968179    -5.460747    -2.490518    -25.706530    -3.814857    -6.755546    -16.858704    -1.617603    12.276297    13.217939    5.699862    15.583109    1.916973    -1.558352    -7.735807    -2.848864    -1.896879    18.665316    -1.950051    7.641752    -0.715220    -2.122140    -10.057846    -6.040469    4.552084    0.713240    -0.948746    -0.419121    -1.470739    0.591996    -7.528923    5.407525    2.116786    8.487776    -10.933581    3.255982    -1.270572    1.185888    -5.738543    -0.236842    -0.162282    0.425477    
2.255659    82.516769    -11.506640    2.131107    3.975661    0.462470    -3.100410    -15.202354    -0.025181    -2.653641    3.458594    0.468842    2.937020    32.696476    -2.575989    4.708173    -12.027655    -1.048219    20.119059    0.323613    6.218247    -28.844349    7.939193    -15.025467    4.973462    -5.461661    -2.511773    -25.706303    -3.810196    -6.775405    -16.863844    -1.621554    12.282098    13.213912    5.713927    15.573209    1.924790    -1.569522    -7.698069    -2.835658    -1.904373    18.600899    -1.945572    7.645783    -0.723398    -2.118955    -10.054262    -6.071207    4.580663    0.707445    -0.915584    -0.416109    -1.442694    0.587641    -7.530409    5.412324    2.111089    8.489429    -10.926863    3.279817    -1.266590    1.191095    -5.759519    -0.243290    -0.184263    0.437166    
2.269257    82.515945    -11.510694    2.124196    3.962424    0.463019    -3.101952    -15.192944    -0.028542    -2.661234    3.453412    0.465518    2.916991    32.714920    -2.592128    4.746320    -12.066685    -1.056798    20.121323    0.329024    6.233581    -28.819517    7.964976    -15.050623    4.968666    -5.446720    -2.530373    -25.704515    -3.791559    -6.788886    -16.871258    -1.650485    12.296830    13.245094    5.707505    15.545287    1.982077    -1.442387    -7.659062    -2.884621    -1.776521    18.384960    -1.944512    7.649514    -0.689302    -2.137112    -10.031895    -6.123758    4.623496    0.691484    -0.897179    -0.414406    -1.447192    0.585252    -7.535138    5.423362    2.129443    8.492572    -10.928422    3.273483    -1.269464    1.193039    -5.762985    -0.228087    -0.175475    0.409808    
2.285180    82.515785    -11.513806    2.119337    3.951035    0.461726    -3.098557    -15.194419    -0.029146    -2.677767    3.456219    0.465033    2.901036    32.742485    -2.595928    4.792472    -12.112312    -1.049392    20.121639    0.317743    6.227611    -28.783598    8.004855    -15.047672    4.962737    -5.431876    -2.544640    -25.712122    -3.770701    -6.810863    -16.867350    -1.622413    12.279956    13.256359    5.626461    15.579521    1.946383    -1.480740    -7.674997    -2.856344    -1.812754    18.400028    -1.953048    7.658479    -0.701922    -2.129421    -10.034298    -6.086331    4.574808    0.701154    -0.916770    -0.426454    -1.470810    0.602354    -7.541291    5.429491    2.112012    8.489162    -10.923592    3.276764    -1.242308    1.196001    -5.757324    -0.236418    -0.167934    0.424742    
2.299456    82.515648    -11.518261    2.111470    3.939436    0.465362    -3.106076    -15.187082    -0.031478    -2.664387    3.445108    0.462935    2.891930    32.769196    -2.613101    4.808731    -12.142636    -1.062706    20.099623    0.333716    6.233996    -28.745424    8.025922    -15.084809    4.960632    -5.391838    -2.549740    -25.721096    -3.725319    -6.830578    -16.885897    -1.623822    12.279678    13.273462    5.629509    15.585165    1.935218    -1.485074    -7.701353    -2.836232    -1.813052    18.356647    -1.951029    7.661597    -0.697487    -2.142138    -10.017082    -6.092540    4.625127    0.680275    -0.937583    -0.427795    -1.443060    0.604145    -7.542324    5.433939    2.111278    8.489711    -10.910519    3.287293    -1.227884    1.189226    -5.769853    -0.230920    -0.171534    0.414882    
2.314199    82.515160    -11.521899    2.102967    3.926241    0.465510    -3.103376    -15.184555    -0.029772    -2.671264    3.445561    0.464471    2.896333    32.797085    -2.633398    4.830730    -12.183434    -1.075182    20.117414    0.292114    6.217536    -28.743099    8.097860    -15.056501    4.955770    -5.391485    -2.575492    -25.685812    -3.716961    -6.870872    -16.875751    -1.606042    12.264341    13.249447    5.638568    15.628554    1.936295    -1.489982    -7.757343    -2.791209    -1.809096    18.332756    -1.950975    7.669765    -0.680429    -2.140682    -10.015285    -6.137855    4.588280    0.683999    -0.898353    -0.425973    -1.466102    0.601657    -7.544384    5.439700    2.107358    8.488585    -10.904722    3.287913    -1.220580    1.189160    -5.767023    -0.232044    -0.176774    0.416924    
2.330914    82.514839    -11.526144    2.100051    3.914566    0.471401    -3.100572    -15.184793    -0.024971    -2.683181    3.446926    0.469187    2.906977    32.790817    -2.648761    4.837269    -12.162673    -1.088839    20.108810    0.306871    6.212152    -28.705467    8.130374    -15.089321    4.937954    -5.391118    -2.586060    -25.640505    -3.708552    -6.918482    -16.875982    -1.586970    12.265394    13.250040    5.640038    15.627922    1.917430    -1.493094    -7.782937    -2.720480    -1.800793    18.296450    -1.956913    7.671473    -0.689904    -2.159678    -9.991962    -6.086666    4.649411    0.659619    -0.948816    -0.409369    -1.441091    0.578116    -7.555328    5.444740    2.092398    8.499056    -10.896059    3.292530    -1.216690    1.184188    -5.761117    -0.233557    -0.164132    0.419585    
